<?xml version="1.0" encoding="UTF-8" standalone="no"?>
<!-- Created with Inkscape (http://www.inkscape.org/) -->

<svg
   width="66.558296mm"
   height="45.002644mm"
   viewBox="0 0 66.558296 45.002643"
   version="1.1"
   id="svg1"
   xml:space="preserve"
   inkscape:version="1.4.3 (0d15f75, 2025-12-25)"
   sodipodi:docname="logo.svg"
   inkscape:export-filename="logo2.png"
   inkscape:export-xdpi="462.85504"
   inkscape:export-ydpi="462.85504"
   xmlns:inkscape="http://www.inkscape.org/namespaces/inkscape"
   xmlns:sodipodi="http://sodipodi.sourceforge.net/DTD/sodipodi-0.dtd"
   xmlns="http://www.w3.org/2000/svg"
   xmlns:svg="http://www.w3.org/2000/svg"><sodipodi:namedview
     id="namedview1"
     pagecolor="#ffffff"
     bordercolor="#000000"
     borderopacity="0.25"
     inkscape:showpageshadow="2"
     inkscape:pageopacity="0.0"
     inkscape:pagecheckerboard="0"
     inkscape:deskcolor="#d1d1d1"
     inkscape:document-units="mm"
     inkscape:zoom="1"
     inkscape:cx="353.49999"
     inkscape:cy="471.49999"
     inkscape:window-width="1920"
     inkscape:window-height="1009"
     inkscape:window-x="-8"
     inkscape:window-y="-8"
     inkscape:window-maximized="1"
     inkscape:current-layer="layer1"><inkscape:page
       x="0"
       y="0"
       width="66.558296"
       height="45.002644"
       id="page1"
       margin="0"
       bleed="0" /></sodipodi:namedview><defs
     id="defs1" /><path
     style="fill:#ffffff;fill-opacity:1;stroke-width:0.264583"
     d="M 4.6963539,10.389521 4.6798174,0.56686528 18.785416,4.6348333 c 1.521703,-0.375988 2.678558,-0.43981 3.935678,0.06614 2.387448,-6.333827 9.40467,-4.97350202 10.526184,-1.918228 0.883444,-4.340768 12.063845,-3.53435602 10.770423,1.937602 0.967974,-0.790992 2.533783,-0.516085 3.938028,-0.08552 L 61.846354,0.73222428 61.912499,37.641598 41.076562,43.065562 25.4,43.131708 4.6302081,37.244728 Z"
     id="path1"
     sodipodi:nodetypes="ccccccccccccc" /><g
     inkscape:label="Camada 1"
     inkscape:groupmode="layer"
     id="layer1"
     transform="matrix(0.71519639,0,0,0.72185507,-4.5057314,-74.618976)"><path
       style="fill:#314c91;fill-opacity:1;stroke-width:0.264583"
       d="m 6.2999918,118.22105 v 47.49313 L 42.212604,163.17687 12.8059,155.10955 12.87096,117.76563 Z"
       id="path2" /><path
       style="fill:#314c91;fill-opacity:1;stroke-width:0.264583"
       d="m 99.362955,118.22105 v 47.49313 l -35.91282,-2.53731 29.40687,-8.06732 -0.0651,-37.34392 z"
       id="path9" /><path
       style="fill:#f174a7;fill-opacity:1;stroke-width:0.264583"
       d="m 50.910122,107.22606 0.0651,45.08594 c -3.55899,-0.0258 -8.371371,0.96973 -8.197444,-7.09144 -6.654776,8.30691 -16.028464,-0.06 -10.832337,-8.39262 -6.268483,1.08091 -10.084818,-10.81704 -1.333709,-12.23111 -3.172599,-8.38306 2.610638,-13.64891 9.238387,-11.45039 -0.348745,-6.50756 5.835023,-9.25051 11.060003,-5.92038 z"
       id="path10"
       sodipodi:nodetypes="ccccccc" /><path
       style="fill:none;fill-opacity:1;stroke:#f174a7;stroke-width:0.264583;stroke-opacity:1"
       d="m 54.800685,107.05116 6.30251,-1.42611 4.50836,4.41635 -0.092,5.29043 -5.0144,3.45028 3.35827,1.88615 3.86431,-2.71422 1.61013,-6.07249 5.93448,4.04833 0.59805,6.62454 -4.8764,4.09433 6.90056,-1.61014 2.07017,6.44053 -4.50837,4.46236 -5.56644,-0.73606 5.29042,4.41635 0.82807,4.00233 -2.4382,4.27834 -5.42844,1.01209 -5.33643,-3.91032 -1.74814,5.75046 -6.11849,1.28811 z"
       id="path11" /><ellipse
       style="fill:#f174a7;fill-opacity:1;stroke:#f174a7;stroke-width:0.264583;stroke-opacity:1"
       id="path26-5-495"
       ry="1.0169978"
       rx="0.99542576"
       cy="122.56689"
       cx="75.499031" /><ellipse
       style="fill:#f174a7;fill-opacity:1;stroke:#f174a7;stroke-width:0.264583;stroke-opacity:1"
       id="path26-5-75"
       ry="1.0169978"
       rx="0.99542576"
       cy="126.58517"
       cx="71.45002" /><ellipse
       style="fill:#f174a7;fill-opacity:1;stroke:#f174a7;stroke-width:0.264583;stroke-opacity:1"
       id="path26-5-66"
       ry="1.0169978"
       rx="0.99542576"
       cy="115.44928"
       cx="65.289169" /><ellipse
       style="fill:#f174a7;fill-opacity:1;stroke:#f174a7;stroke-width:0.264583;stroke-opacity:1"
       id="path26-5-44"
       ry="1.0169978"
       rx="0.99542576"
       cy="110.25684"
       cx="65.48761" /><ellipse
       style="fill:#f174a7;fill-opacity:1;stroke:#f174a7;stroke-width:0.264583;stroke-opacity:1"
       id="path26-5-33"
       ry="1.0169978"
       rx="0.99542576"
       cy="140.75006"
       cx="63.17252" /><path
       style="fill:none;fill-opacity:1;stroke:#f174a7;stroke-width:0.264583;stroke-opacity:1"
       d="m 63.069455,141.04177 1.46062,-6.08974 9.33876,-5.61246 -4.32459,5.73445"
       id="path12"
       sodipodi:nodetypes="cccc" /><path
       style="fill:none;fill-opacity:1;stroke:#f174a7;stroke-width:0.264583;stroke-opacity:1"
       d="m 70.982095,126.62536 -6.59003,2.4842 -3.86431,5.56645 2.53021,6.48652"
       id="path13"
       sodipodi:nodetypes="cccc" /><path
       style="fill:none;fill-opacity:1;stroke:#f174a7;stroke-width:0.264583;stroke-opacity:1"
       d="m 54.915305,151.9734 4.69238,-7.68262 -4.69238,-9.9368"
       id="path14" /><path
       style="fill:none;fill-opacity:1;stroke:#f174a7;stroke-width:0.264583;stroke-opacity:1"
       d="m 55.007305,128.55751 8.61339,-3.99698"
       id="path15"
       sodipodi:nodetypes="cc" /><path
       style="fill:none;fill-opacity:1;stroke:#f174a7;stroke-width:0.264583;stroke-opacity:1"
       d="m 71.163895,126.41849 2.66742,2.97646 5.92038,2.16321"
       id="path16"
       sodipodi:nodetypes="ccc" /><path
       style="fill:none;fill-opacity:1;stroke:#f174a7;stroke-width:0.264583;stroke-opacity:1"
       d="m 60.233965,118.74152 3.38308,5.92037"
       id="path17" /><path
       style="fill:none;fill-opacity:1;stroke:#f174a7;stroke-width:0.264583;stroke-opacity:1"
       d="m 63.421865,124.59683 12.29616,-2.08189"
       id="path18" /><path
       style="fill:none;fill-opacity:1;stroke:#f174a7;stroke-width:0.264583;stroke-opacity:1"
       d="m 54.703945,106.96582 5.57881,11.82449 5.09088,-8.76671"
       id="path19"
       sodipodi:nodetypes="ccc" /><path
       style="fill:none;fill-opacity:1;stroke:#f174a7;stroke-width:0.264583;stroke-opacity:1"
       d="m 75.978265,143.59409 -6.50591,-2.99272 -1.17106,4.16378"
       id="path20" /><path
       style="fill:none;fill-opacity:1;stroke:#f174a7;stroke-width:0.264583;stroke-opacity:1"
       d="m 56.525605,137.47853 3.51319,-7.1565"
       id="path21" /><path
       style="fill:none;fill-opacity:1;stroke:#f174a7;stroke-width:0.264583;stroke-opacity:1"
       d="m 68.301295,144.70009 -1.7566,-5.7252"
       id="path22" /><path
       style="fill:none;fill-opacity:1;stroke:#f174a7;stroke-width:0.264583;stroke-opacity:1"
       d="m 59.583375,144.37479 3.13097,0.52861"
       id="path23"
       sodipodi:nodetypes="cc" /><path
       style="fill:none;fill-opacity:1;stroke:#f174a7;stroke-width:0.264583;stroke-opacity:1"
       d="m 66.674815,139.03995 -3.60306,1.98233"
       id="path24"
       sodipodi:nodetypes="cc" /><path
       style="fill:none;fill-opacity:1;stroke:#f174a7;stroke-width:0.264583;stroke-opacity:1"
       d="m 60.015785,130.40581 0.52837,4.29818"
       id="path25"
       sodipodi:nodetypes="cc" /><ellipse
       style="fill:#f174a7;fill-opacity:1;stroke:#f174a7;stroke-width:0.264583;stroke-opacity:1"
       id="path26-5"
       ry="1.0169978"
       rx="0.99542576"
       cy="151.70239"
       cx="55.002644" /><path
       style="fill:#f174a7;fill-opacity:1;stroke:#f174a7;stroke-width:0.264583;stroke-opacity:1"
       d="m 54.915305,128.53451 3.61129,-13.43309"
       id="path27" /><path
       style="fill:#f174a7;fill-opacity:1;stroke:#f174a7;stroke-width:0.264583;stroke-opacity:1"
       d="m 67.650705,117.96081 7.87215,4.42401"
       id="path28" /><path
       style="fill:#f174a7;fill-opacity:1;stroke:#f174a7;stroke-width:0.264583;stroke-opacity:1"
       d="m 63.551985,124.72695 0.84576,4.55414"
       id="path29" /><g
       id="g34"
       style="fill-rule:evenodd"
       transform="translate(-56.091665,0.52916665)"><path
         style="fill:#5494d2;fill-opacity:1;fill-rule:evenodd;stroke-width:0.264583"
         d="m 72.685872,104.70446 16.285316,4.55437 c -4.358388,2.28955 -6.579049,5.94046 -5.704462,11.77695 -3.443166,3.12481 -7.219275,10.10257 0.322025,16.60734 -2.221384,12.51919 7.101359,15.62261 13.801116,13.06505 2.285558,2.96773 5.241743,4.58196 9.968693,3.04534 l -3.98821,6.29342 -30.684478,-8.14266 z"
         id="path4"
         sodipodi:nodetypes="ccccccccc" /></g><path
       style="fill:#5494d2;fill-opacity:1;stroke-width:0.264583"
       d="m 89.608165,105.23363 -16.28537,4.55437 c 4.35841,2.28955 6.57909,5.94046 5.70449,11.77695 3.44319,3.12481 7.2193,10.10257 -0.32202,16.60734 2.2214,12.51919 -7.1014,15.62261 -13.80119,13.06505 -2.28558,2.96773 -5.24178,4.58196 -9.96876,3.04534 l 3.98824,6.29342 30.68461,-8.14266 z"
       id="path34"
       sodipodi:nodetypes="ccccccccc" /><ellipse
       style="fill:#f174a7;fill-opacity:1;stroke:#f174a7;stroke-width:0.264583;stroke-opacity:1"
       id="path26-5-2"
       ry="1.0169978"
       rx="0.99542576"
       cy="150.44043"
       cx="61.039303" /><ellipse
       style="fill:#f174a7;fill-opacity:1;stroke:#f174a7;stroke-width:0.264583;stroke-opacity:1"
       id="path26-5-1"
       ry="1.0169978"
       rx="0.99542576"
       cy="144.4046"
       cx="59.650249" /><ellipse
       style="fill:#f174a7;fill-opacity:1;stroke:#f174a7;stroke-width:0.264583;stroke-opacity:1"
       id="path26-5-3"
       ry="1.0169978"
       rx="0.99542576"
       cy="144.96684"
       cx="62.80872" /><ellipse
       style="fill:#f174a7;fill-opacity:1;stroke:#f174a7;stroke-width:0.264583;stroke-opacity:1"
       id="path26-5-8"
       ry="1.0169978"
       rx="0.99542576"
       cy="134.36171"
       cx="54.911274" /><ellipse
       style="fill:#f174a7;fill-opacity:1;stroke:#f174a7;stroke-width:0.264583;stroke-opacity:1"
       id="path26-5-29"
       ry="1.0169978"
       rx="0.99542576"
       cy="128.18236"
       cx="54.871204" /><ellipse
       style="fill:#f174a7;fill-opacity:1;stroke:#f174a7;stroke-width:0.264583;stroke-opacity:1"
       id="path26-5-9"
       ry="1.0169978"
       rx="0.99542576"
       cy="130.29901"
       cx="59.997509" /><ellipse
       style="fill:#f174a7;fill-opacity:1;stroke:#f174a7;stroke-width:0.264583;stroke-opacity:1"
       id="path26-5-4"
       ry="1.0169978"
       rx="0.99542576"
       cy="107.44564"
       cx="54.904285" /><ellipse
       style="fill:#f174a7;fill-opacity:1;stroke:#f174a7;stroke-width:0.264583;stroke-opacity:1"
       id="path26-5-0"
       ry="1.0169978"
       rx="0.99542576"
       cy="105.99044"
       cx="60.989704" /><ellipse
       style="fill:#f174a7;fill-opacity:1;stroke:#f174a7;stroke-width:0.264583;stroke-opacity:1"
       id="path26-5-96"
       ry="1.0169978"
       rx="0.99542576"
       cy="115.31699"
       cx="58.575375" /><ellipse
       style="fill:#f174a7;fill-opacity:1;stroke:#f174a7;stroke-width:0.264583;stroke-opacity:1"
       id="path26-5-6"
       ry="1.0169978"
       rx="0.99542576"
       cy="118.45892"
       cx="60.625889" /><ellipse
       style="fill:#f174a7;fill-opacity:1;stroke:#f174a7;stroke-width:0.264583;stroke-opacity:1"
       id="path26-5-291"
       ry="1.0169978"
       rx="0.99542576"
       cy="135.12767"
       cx="64.793091" /><ellipse
       style="fill:#f174a7;fill-opacity:1;stroke:#f174a7;stroke-width:0.264583;stroke-opacity:1"
       id="path26-5-49"
       ry="1.0169978"
       rx="0.99542576"
       cy="134.66464"
       cx="60.725117" /><ellipse
       style="fill:#f174a7;fill-opacity:1;stroke:#f174a7;stroke-width:0.264583;stroke-opacity:1"
       id="path26-5-40"
       ry="1.0169978"
       rx="0.99542576"
       cy="144.18965"
       cx="68.298805" /><ellipse
       style="fill:#f174a7;fill-opacity:1;stroke:#f174a7;stroke-width:0.264583;stroke-opacity:1"
       id="path26-5-42"
       ry="1.0169978"
       rx="0.99542576"
       cy="139.19562"
       cx="66.612083" /><ellipse
       style="fill:#f174a7;fill-opacity:1;stroke:#f174a7;stroke-width:0.264583;stroke-opacity:1"
       id="path26-5-81"
       ry="1.0169978"
       rx="0.99542576"
       cy="140.82176"
       cx="69.47229" /><ellipse
       style="fill:#f174a7;fill-opacity:1;stroke:#f174a7;stroke-width:0.264583;stroke-opacity:1"
       id="path26-5-444"
       ry="1.0169978"
       rx="0.99542576"
       cy="143.369"
       cx="75.747108" /><ellipse
       style="fill:#f174a7;fill-opacity:1;stroke:#f174a7;stroke-width:0.264583;stroke-opacity:1"
       id="path26-5-07"
       ry="1.0169978"
       rx="0.99542576"
       cy="147.61565"
       cx="73.496529" /><ellipse
       style="fill:#f174a7;fill-opacity:1;stroke:#f174a7;stroke-width:0.264583;stroke-opacity:1"
       id="path26-5-03"
       ry="1.0169978"
       rx="0.99542576"
       cy="148.53961"
       cx="68.288773" /><ellipse
       style="fill:#f174a7;fill-opacity:1;stroke:#f174a7;stroke-width:0.264583;stroke-opacity:1"
       id="path26-5-037"
       ry="1.0169978"
       rx="0.99542576"
       cy="135.2756"
       cx="70.000076" /><ellipse
       style="fill:#f174a7;fill-opacity:1;stroke:#f174a7;stroke-width:0.264583;stroke-opacity:1"
       id="path26-5-34"
       ry="1.0169978"
       rx="0.99542576"
       cy="135.78871"
       cx="75.344032" /><ellipse
       style="fill:#f174a7;fill-opacity:1;stroke:#f174a7;stroke-width:0.264583;stroke-opacity:1"
       id="path26-5-32"
       ry="1.0169978"
       rx="0.99542576"
       cy="139.38283"
       cx="75.101463" /><ellipse
       style="fill:#f174a7;fill-opacity:1;stroke:#f174a7;stroke-width:0.264583;stroke-opacity:1"
       id="path26-5-22"
       ry="1.0169978"
       rx="0.99542576"
       cy="129.57672"
       cx="73.710197" /><ellipse
       style="fill:#f174a7;fill-opacity:1;stroke:#f174a7;stroke-width:0.264583;stroke-opacity:1"
       id="path26-5-7"
       ry="1.0169978"
       rx="0.99542576"
       cy="131.50449"
       cx="79.556725" /><ellipse
       style="fill:#f174a7;fill-opacity:1;stroke:#f174a7;stroke-width:0.264583;stroke-opacity:1"
       id="path26-5-05"
       ry="1.0169978"
       rx="0.99542576"
       cy="125.36771"
       cx="77.663826" /><ellipse
       style="fill:#f174a7;fill-opacity:1;stroke:#f174a7;stroke-width:0.264583;stroke-opacity:1"
       id="path26-5-16"
       ry="1.0169978"
       rx="0.99542576"
       cy="129.05995"
       cx="64.352585" /><ellipse
       style="fill:#f174a7;fill-opacity:1;stroke:#f174a7;stroke-width:0.264583;stroke-opacity:1"
       id="path26-5-84"
       ry="1.0169978"
       rx="0.99542576"
       cy="124.63266"
       cx="63.528576" /><ellipse
       style="fill:#f174a7;fill-opacity:1;stroke:#f174a7;stroke-width:0.264583;stroke-opacity:1"
       id="path26-5-06"
       ry="1.0169978"
       rx="0.99542576"
       cy="120.34798"
       cx="63.987583" /><ellipse
       style="fill:#f174a7;fill-opacity:1;stroke:#f174a7;stroke-width:0.264583;stroke-opacity:1"
       id="path26-5-67"
       ry="1.0169978"
       rx="0.99542576"
       cy="118.13499"
       cx="67.764656" /><ellipse
       style="fill:#f174a7;fill-opacity:1;stroke:#f174a7;stroke-width:0.264583;stroke-opacity:1"
       id="path26-5-26"
       ry="1.0169978"
       rx="0.99542576"
       cy="112.11285"
       cx="69.362244" /><ellipse
       style="fill:#f174a7;fill-opacity:1;stroke:#f174a7;stroke-width:0.264583;stroke-opacity:1"
       id="path26-5-5"
       ry="1.0169978"
       rx="0.99542576"
       cy="116.05595"
       cx="75.179176" /><ellipse
       style="fill:#f174a7;fill-opacity:1;stroke:#f174a7;stroke-width:0.264583;stroke-opacity:1"
       id="path26-5-02"
       ry="1.0169978"
       rx="0.99542576"
       cy="137.56679"
       cx="56.52486" /></g></svg>
